
<svg width="642px" height="198px" viewBox="0 0 642 198" version="1.1" xmlns="http://www.w3.org/2000/svg" xmlns:xlink="http://www.w3.org/1999/xlink">
    <desc>Created with Sketch.</desc>
        <defs></defs>
            <g id="Page-1" stroke="none" stroke-width="1" fill="none" fill-rule="evenodd">
                    <g id="insurancenews-logo" fill-rule="nonzero">
                                <path d="M32,30.5 L32,38.9 L49.4,38.9 C52.3,38.9 54.4,39.5 55.8,40.7 C57.2,41.9 86,81.9 86,81.9 L86,45.1 C86,43.1 86.6,41.5 87.8,40.5 C89,39.5 90.9,38.9 93.6,38.9 L111.4,38.9 L111.4,30.5 L32,30.5 Z" id="Shape" fill="#231C34"></path>
                                            <path d="M94.8,158.2 C91.7,158.2 89.4,157.5 87.8,156.2 C86.5,155.2 57.8,115.2 57.8,115.2 L57.8,151.1 C57.8,153.4 57.1,155.2 55.6,156.4 C54.1,157.6 51.6,158.2 48,158.2 L32,158.2 L32,166.6 L111.3,166.6 L111.3,158.2 L94.8,158.2 Z" id="Shape" fill="#231C34"></path>
                                                        <path d="M0.7,0.2 L0.7,197.8 L142.4,197.8 L142.4,0.2 L0.7,0.2 Z M16.3,182.2 L16.3,15.8 L126.9,15.8 L126.9,182.3 L16.3,182.3 L16.3,182.2 Z" id="Shape" fill="#FF5000"></path>
                                                                    <path d="M155,51.1 L176.5,50.5 L176.5,97 C176.5,98.3 176.8,99.2 177.4,99.7 C178.3,100.5 179.4,100.9 180.8,100.9 L186.9,100.9 L186.9,105.2 L156.1,105.2 L156.1,100.9 L161.8,100.9 C163.5,100.9 164.7,100.5 165.5,99.7 C166.3,98.9 166.7,97.7 166.7,96.1 L166.7,62 C166.7,59.8 166.1,58.2 164.9,57.1 C163.7,56 161.8,55.4 159.4,55.4 L155,55.4 L155,51.1 Z M170,30.5 C171.7,30.5 173.3,31.1 174.6,32.5 C175.9,33.8 176.6,35.3 176.6,37.1 C176.6,38.8 176,40.3 174.7,41.6 C173.4,42.9 171.9,43.5 170.1,43.5 C168.3,43.5 166.8,42.9 165.5,41.6 C164.2,40.3 163.6,38.8 163.6,37.1 C163.6,35.4 164.3,33.9 165.6,32.5 C166.8,31.1 168.3,30.5 170,30.5 Z" id="Shape" fill="#231C34"></path>
                                                                                <path d="M189.2,51.1 L207.2,50 C207.9,53.4 208.5,57.3 208.8,61.9 C211.2,58 214.1,55 217.4,53.1 C220.7,51.1 224.4,50.2 228.6,50.2 C232.2,50.2 235.2,50.9 237.6,52.3 C240,53.7 242,55.9 243.4,59 C244.9,62 245.6,65.5 245.6,69.2 L245.6,95.5 C245.6,97.5 246,98.9 246.9,99.7 C247.8,100.5 249.3,100.9 251.3,100.9 L255.1,100.9 L255.1,105.2 L226.6,105.2 L226.6,100.9 L229.3,100.9 C231.8,100.9 233.6,100.5 234.6,99.7 C235.6,98.9 236.1,97.7 236.1,96.1 L236.1,72.9 C236.1,67.9 235.3,64.1 233.8,61.7 C231.6,58.2 228.4,56.5 224,56.5 C219.7,56.5 216,58.3 213.1,61.7 C210.2,65.2 208.7,69.8 208.7,75.4 L208.7,95.4 C208.7,97.4 209.1,98.8 210.1,99.6 C211,100.4 212.5,100.8 214.6,100.8 L218.4,100.8 L218.4,105.1 L189.8,105.1 L189.8,100.8 L193.5,100.8 C195.4,100.8 196.8,100.4 197.8,99.6 C198.8,98.8 199.3,97.9 199.3,96.7 L199.3,61.8 C199.3,59.5 198.7,57.7 197.4,56.5 C196.1,55.3 194.3,54.7 192,54.7 L189.2,54.7 L189.2,51.1 Z" id="Shape" fill="#231C34"></path>
                                                                                            <path d="M262.7,84.8 C265.1,91.5 267.8,96.1 270.9,98.6 C274,101.2 277.8,102.4 282.4,102.4 C286.6,102.4 289.8,101.5 292.1,99.7 C294.3,97.9 295.5,95.6 295.5,92.7 C295.5,91.1 295.1,89.7 294.3,88.5 C293.5,87.3 292.3,86.4 290.8,85.8 C289.3,85.2 285.5,84.3 279.4,83.2 C273.5,82 269.4,80.8 267.1,79.6 C264.8,78.3 263,76.6 261.7,74.3 C260.4,72.1 259.8,69.6 259.8,67 C259.8,63 261.1,59.4 263.8,56.2 C267.2,52.1 272,50 278.2,50 C282.9,50 287.3,51.5 291.3,54.4 L295.1,50.4 L297.5,50.4 L299,69.7 L295,69.7 C293.3,64.2 291,60.3 288.1,57.9 C285.2,55.5 281.6,54.3 277.4,54.3 C273.7,54.3 270.9,55.2 268.8,57 C266.7,58.8 265.7,61 265.7,63.6 C265.7,65.9 266.7,67.8 268.6,69.3 C270.5,70.8 274.2,72.1 279.7,72.9 C286.1,74 290.3,74.9 292.2,75.6 C295.4,76.8 297.8,78.5 299.5,80.9 C301.2,83.3 302.1,86.2 302.1,89.7 C302.1,94.5 300.2,98.5 296.5,101.8 C292.7,105.1 288,106.8 282.2,106.8 C276.8,106.8 271.9,105 267.3,101.5 L263.1,106.4 L260,106.4 L258.8,84.9 L262.7,84.9 L262.7,84.8 Z" id="Shape" fill="#231C34"></path>
                                                                                                        <path d="M320.6,50.1 L320.6,86 C320.6,90.4 321.7,93.8 323.9,96.2 C326.1,98.6 329,99.8 332.5,99.8 C336.8,99.8 340.5,98.1 343.5,94.6 C346.5,91.1 348,86.8 348,81.5 L348,61.2 C348,59.4 347.3,57.9 346,56.9 C344.7,55.9 342.1,55.3 338.3,55.2 L338.3,51.2 L357.3,50.2 L357.3,94.6 C357.3,96.6 357.9,98.2 359,99.3 C360.2,100.4 361.8,100.9 363.9,100.9 L367.3,100.9 L367.3,104.8 L349.1,105.2 L347.9,94.6 C344.7,98.4 341.4,101.3 338.2,103.2 C334.9,105.1 331.6,106.1 328.3,106.1 C323.4,106.1 319.3,104.5 316,101.2 C312.7,98 311,92.5 311,84.7 L311,61.2 C311,59.1 310.2,57.5 308.5,56.5 C307.3,55.7 305,55.3 301.4,55.2 L301.4,51.2 L320.6,50.1 Z" id="Shape" fill="#231C34"></path>
                                                                                                                    <path d="M370.5,51.1 L390,50.1 L390,72 C392.1,64.8 394.6,59.4 397.5,55.7 C400.4,52 404,50.2 408.4,50.2 C411.3,50.2 413.7,51.1 415.4,52.9 C417.2,54.7 418,57.1 418,60.1 C418,62.5 417.4,64.4 416.2,65.8 C415,67.2 413.6,67.8 411.8,67.8 C410.1,67.8 408.7,67.2 407.6,66.1 C406.5,64.9 406,63.4 406,61.4 C406,60.1 406.3,58.9 406.9,57.8 C407.5,56.8 407.8,56.2 407.8,56 C407.8,55.4 407.4,55.1 406.7,55.1 C405.1,55.1 403.3,56 401.3,57.9 C398.5,60.5 396.4,64 394.9,68.5 C392.6,75.5 391.4,81.1 391.4,85.3 L391.4,96.9 C391.4,98.2 391.9,99.2 392.8,99.9 C393.7,100.6 395.3,100.9 397.5,100.9 L404.4,100.9 L404.4,105.2 L370.8,105.2 L370.8,100.9 L376.2,100.9 C378,100.9 379.4,100.5 380.3,99.8 C381.2,99.1 381.7,98.2 381.7,97.2 L381.7,62.7 C381.7,60.1 381.1,58.2 380,57 C378.9,55.8 377.3,55.2 375.2,55.2 L370.5,55.2 L370.5,51.1 Z" id="Shape" fill="#231C34"></path>
                                                                                                                                <path d="M473.4,99.2 L475.5,102.4 C472.7,105.3 469.6,106.7 466.1,106.7 C463.5,106.7 461.3,106 459.5,104.6 C457.7,103.2 456.1,100.7 454.8,97.1 C451.1,100.9 447.9,103.5 445.2,104.8 C442.4,106.1 439.1,106.7 435.2,106.7 C429.7,106.7 425.4,105.5 422.6,103.1 C419.7,100.7 418.3,97.7 418.3,93.9 C418.3,88.3 421.6,83.6 428.2,79.9 C434.8,76.2 443.6,73.7 454.6,72.5 L454.6,64.3 C454.6,61.4 453.4,58.9 451.1,56.8 C448.7,54.7 445.8,53.7 442.1,53.7 C438.8,53.7 435.9,54.4 433.4,55.8 C431.7,56.8 430.8,57.9 430.8,58.9 C430.8,59.5 431.3,60.4 432.2,61.6 C433.3,63.1 433.9,64.5 433.9,65.7 C433.9,67.4 433.3,68.8 432.2,69.9 C431.1,71 429.6,71.5 427.8,71.5 C425.9,71.5 424.3,70.8 423,69.5 C421.7,68.2 421.1,66.5 421.1,64.5 C421.1,60.7 423.2,57.2 427.5,54 C431.8,50.8 437.4,49.3 444.4,49.3 C450.8,49.3 455.7,50.7 459.1,53.5 C462.5,56.3 464.2,59.7 464.2,63.7 L464.2,93.3 C464.2,95.9 464.6,97.8 465.5,99.1 C466.3,100.4 467.4,101 468.8,101 C470.2,101.1 471.7,100.5 473.4,99.2 L473.4,99.2 Z M454.5,76.4 C444.7,77.8 437.8,79.9 433.7,83 C430.7,85.3 429.1,88.6 429.1,92.8 C429.1,95.8 429.9,98.1 431.5,99.8 C433.1,101.5 435.1,102.3 437.7,102.3 C442.2,102.3 446.2,100.6 449.5,97.1 C452.8,93.7 454.5,89.3 454.5,84.1 L454.5,76.4 Z" id="Shape" fill="#231C34"></path>
                                                                                                                                            <path d="M477.9,51.1 L495.9,50 C496.6,53.4 497.2,57.3 497.5,61.9 C499.9,58 502.8,55 506.1,53.1 C509.4,51.1 513.1,50.2 517.3,50.2 C520.9,50.2 523.9,50.9 526.3,52.3 C528.7,53.7 530.7,55.9 532.1,59 C533.6,62 534.3,65.5 534.3,69.2 L534.3,95.5 C534.3,97.5 534.8,98.9 535.6,99.7 C536.5,100.5 538,100.9 540,100.9 L543.8,100.9 L543.8,105.2 L515.3,105.2 L515.3,100.9 L518,100.9 C520.5,100.9 522.3,100.5 523.3,99.7 C524.3,98.9 524.8,97.7 524.8,96.1 L524.8,72.9 C524.8,67.9 524,64.1 522.5,61.7 C520.4,58.2 517.1,56.5 512.7,56.5 C508.4,56.5 504.7,58.3 501.8,61.7 C498.9,65.2 497.4,69.8 497.4,75.4 L497.4,95.4 C497.4,97.4 497.9,98.8 498.8,99.6 C499.7,100.4 501.2,100.8 503.3,100.8 L507.1,100.8 L507.1,105.1 L478.5,105.1 L478.5,100.8 L482.2,100.8 C484.1,100.8 485.5,100.4 486.5,99.6 C487.5,98.8 488,97.9 488,96.7 L488,61.8 C488,59.5 487.4,57.7 486.1,56.5 C484.8,55.3 483,54.7 480.7,54.7 L477.9,54.7 L477.9,51.1 Z" id="Shape" fill="#231C34"></path>
                                                                                                                                                        <path d="M583.8,89.1 L587.6,90.2 C584.6,101.2 578,106.8 567.7,106.8 C560.2,106.8 554.1,104.3 549.3,99.3 C544.5,94.3 542.1,87.7 542.1,79.5 C542.1,70 544.7,62.6 550,57.3 C555.2,52 561.4,49.4 568.5,49.4 C573.8,49.4 578.2,50.9 581.7,53.8 C585.2,56.7 586.9,60 586.9,63.6 C586.9,65.8 586.3,67.5 585,68.9 C583.7,70.3 582.2,71 580.4,71 C578.7,71 577.2,70.4 576,69.2 C574.8,68 574.2,66.6 574.2,64.9 C574.2,63.2 574.9,61.6 576.2,60.1 C576.8,59.4 577.1,58.8 577.1,58.4 C577.1,57.3 576.3,56.2 574.8,55.1 C573.3,54 571.3,53.5 568.7,53.5 C564,53.5 560.4,55.2 558,58.6 C554.5,63.6 552.8,70.1 552.8,78.2 C552.8,85.9 554.3,91.8 557.4,95.8 C560.5,99.8 564.4,101.8 569.2,101.8 C575.8,101.8 580.6,97.6 583.8,89.1 L583.8,89.1 Z" id="Shape" fill="#231C34"></path>
                                                                                                                                                                    <path d="M640.5,78.5 L601.8,78.5 C602,86.7 603.5,92.5 606.4,95.9 C609.7,99.7 613.9,101.6 619,101.6 C626.5,101.6 632.6,97.3 637.2,88.7 L641,90.3 C635.4,101.2 627.3,106.7 616.6,106.7 C609.4,106.7 603.3,104.1 598.3,98.8 C593.4,93.6 590.9,86.9 590.9,78.7 C590.9,69.9 593.3,62.8 598.2,57.4 C603.1,52 609.1,49.3 616.2,49.3 C621.4,49.3 626,50.7 629.8,53.3 C633.6,56 636.5,59.9 638.4,64.9 C639.7,68.7 640.4,73.1 640.5,78.5 L640.5,78.5 Z M601.7,74.4 L625.1,74.4 C626.5,74.4 627.6,73.9 628.3,73 C629.1,72.1 629.5,70.5 629.5,68.2 C629.5,64 628.2,60.4 625.5,57.4 C622.9,54.4 619.8,53 616.2,53 C612.2,53 608.8,54.8 606,58.4 C603.3,61.9 601.8,67.3 601.7,74.4 L601.7,74.4 Z" id="Shape" fill="#231C34"></path>
                                                                                                                                                                                <g id="Group" transform="translate(155.000000, 115.000000)" fill="#FF5000">
                                                                                                                                                                                                <path d="M0.4,1.3 L15.6,1.3 L42.1,34.8 L42.1,12 C42.1,9.8 41.5,8 40.2,6.6 C38.9,5.2 37.1,4.5 34.7,4.3 L34.7,1.2 L52.5,1.2 L52.5,4.3 C50,4.6 48.2,5.3 47.1,6.5 C46,7.7 45.5,9.5 45.5,11.9 L45.5,50 L41.7,50 L11.6,11.4 L11.6,38.1 C11.6,41.2 12.3,43.4 13.7,44.8 C15.1,46.2 16.8,46.9 18.9,46.9 L19.7,46.9 L19.7,50 L0,50 L0,46.9 L1.4,46.9 C3.3,46.9 5,46.1 6.3,44.6 C7.6,43.1 8.3,41.1 8.3,38.7 L8.3,7.2 C6.8,5.2 4.9,4.3 2.7,4.3 L0.5,4.3 L0.5,1.3 L0.4,1.3 Z" id="Shape"></path>
                                                                                                                                                                                                                <path d="M53.3,1.3 L95.8,1.3 L96.8,18.4 L93.9,18.4 C93.2,14.4 92.4,11.5 91.3,9.7 C90.3,7.9 88.9,6.6 87.3,5.7 C85.6,4.8 83.5,4.4 80.8,4.4 L74.1,4.4 C73.1,4.4 72.3,4.6 71.9,5 C71.4,5.4 71.2,6 71.2,6.7 L71.2,23.6 L73.5,23.6 C76.1,23.6 78.2,22.9 79.6,21.4 C81,19.9 81.9,17.5 82.2,14.2 L85.2,14.2 L85.2,36.9 L82.2,36.9 C82,33.1 81.2,30.5 79.7,28.9 C78.2,27.4 76.1,26.6 73.1,26.6 L71.2,26.6 L71.2,44.7 C71.2,45.5 71.4,46.1 71.9,46.4 C72.6,46.9 73.6,47.1 74.9,47.1 L80.8,47.1 C84.8,47.1 88.1,45.8 90.7,43.2 C93.3,40.6 94.8,36.7 95.5,31.5 L98.5,31.5 L97.8,50.1 L53.4,50.1 L53.4,47 L57.8,47 C58.8,47 59.5,46.7 60.1,46.2 C60.6,45.7 60.9,45 60.9,44.2 L60.9,6.6 C60.9,5.8 60.6,5.2 60.1,4.8 C59.6,4.4 58.7,4.2 57.3,4.2 L53.4,4.2 L53.4,1.3 L53.3,1.3 Z" id="Shape"></path>
                                                                                                                                                                                                                                <path d="M96.5,1.3 L116.2,1.3 L116.2,4.4 L114.3,4.4 C113.1,4.4 112.3,4.5 111.9,4.8 C111.5,5.1 111.3,5.5 111.3,6 C111.3,6.4 111.4,6.8 111.5,7.4 L121.2,36.2 L129.6,11.1 L128.2,6.8 C127.9,5.9 127.5,5.3 126.9,5 C126.2,4.6 125.2,4.3 124,4.3 L121.6,4.3 L121.6,1.2 L144.3,1.2 L144.3,4.3 L142.2,4.3 C140.7,4.3 139.6,4.5 139.1,4.8 C138.6,5.2 138.3,5.7 138.3,6.3 C138.3,6.6 138.4,6.9 138.5,7.2 L148.1,36 L156.2,10.6 C156.5,9.8 156.6,9.1 156.6,8.4 C156.6,7.1 156.2,6 155.5,5.3 C154.8,4.6 153.8,4.2 152.7,4.2 L151.3,4.2 L151.3,1.1 L167.2,1.1 L167.2,4.2 C165.4,4.2 164,4.7 163,5.4 C162,6.2 161.2,7.3 160.7,8.9 L147.1,50.9 L143,50.9 L131.5,16.7 L120,50.9 L116,50.9 L101.1,6.7 C100.8,5.8 100.4,5.1 99.9,4.8 C99.4,4.4 98.7,4.3 97.9,4.3 L96.3,4.3 L96.3,1.3 L96.5,1.3 Z" id="Shape"></path>
                                                                                                                                                                                                                                                <path d="M195.3,5.1 L198.4,0.7 L200.7,0.7 L201,17.6 L198,17.6 C196.5,12.8 194.3,9.1 191.4,6.7 C188.6,4.3 185.4,3.1 182,3.1 C179.1,3.1 176.7,3.9 174.8,5.5 C173,7.1 172,9 172,11.2 C172,12.5 172.4,13.7 173.1,14.8 C173.8,15.9 175,16.8 176.6,17.6 C178.2,18.4 181,19.2 185.1,20 C189.8,21 193.1,21.9 194.9,22.7 C197.8,24 199.9,25.7 201.4,27.8 C202.8,29.9 203.6,32.5 203.6,35.5 C203.6,40 202,43.6 198.9,46.3 C195.2,49.5 190.5,51.2 185,51.2 C179.9,51.2 175.3,49.4 171.1,45.9 L167.2,50.7 L164.8,50.7 L164.8,32.6 L167.7,32.6 C170.6,42.9 176.4,48.1 185.3,48.1 C188.9,48.1 191.7,47.3 193.7,45.6 C195.7,43.9 196.7,41.9 196.7,39.4 C196.7,37.7 196.3,36.2 195.4,35 C194.5,33.8 193.2,32.9 191.3,32.1 C190.3,31.7 187.8,31.1 183.8,30.2 C178.4,29 174.6,27.8 172.3,26.5 C170,25.2 168.3,23.7 167.2,21.8 C166.1,20 165.6,17.7 165.6,15.1 C165.6,10.7 167.1,7 170.1,4.2 C173.1,1.4 177.1,1.13686838e-13 182.1,1.13686838e-13 C186.9,0.1 191.3,1.8 195.3,5.1 L195.3,5.1 Z" id="Shape"></path>
                                                                                                                                                                                                                                                                <path d="M210,39.7 C211.6,39.7 213,40.3 214.1,41.4 C215.2,42.6 215.8,43.9 215.8,45.6 C215.8,47.3 215.2,48.7 214.1,49.8 C213,51 211.6,51.5 209.9,51.5 C208.3,51.5 206.9,50.9 205.8,49.8 C204.7,48.6 204.1,47.2 204.1,45.6 C204.1,44 204.7,42.6 205.8,41.4 C207,40.2 208.3,39.7 210,39.7 Z" id="Shape"></path>
                                                                                                                                                                                                                                                                                <path d="M250.4,36.8 L253.5,37.7 C251,46.9 245.5,51.6 236.9,51.6 C230.6,51.6 225.5,49.5 221.5,45.4 C217.5,41.2 215.5,35.7 215.5,28.8 C215.5,20.8 217.7,14.6 222.1,10.2 C226.5,5.8 231.6,3.6 237.6,3.6 C242,3.6 245.7,4.8 248.6,7.3 C251.5,9.7 252.9,12.5 252.9,15.5 C252.9,17.3 252.4,18.8 251.3,20 C250.2,21.2 248.9,21.8 247.5,21.8 C246.1,21.8 244.8,21.3 243.8,20.3 C242.8,19.3 242.3,18.1 242.3,16.7 C242.3,15.3 242.8,13.9 243.9,12.7 C244.4,12.1 244.7,11.6 244.7,11.3 C244.7,10.4 244.1,9.5 242.8,8.6 C241.5,7.7 239.8,7.3 237.7,7.3 C233.8,7.3 230.8,8.7 228.8,11.6 C225.9,15.7 224.5,21.2 224.5,28 C224.5,34.5 225.8,39.4 228.4,42.7 C231,46 234.3,47.7 238.3,47.7 C243.6,47.4 247.7,43.8 250.4,36.8 L250.4,36.8 Z" id="Shape"></path>
                                                                                                                                                                                                                                                                                                <path d="M275.5,3.6 C281.6,3.6 286.7,5.8 290.8,10.2 C294.9,14.6 297,20.4 297,27.6 C297,32.6 296.1,36.8 294.2,40.3 C292.4,43.8 289.7,46.5 286.3,48.6 C282.9,50.6 279.2,51.6 275.2,51.6 C269.3,51.6 264.4,49.4 260.3,44.9 C256.2,40.5 254.2,34.7 254.2,27.6 C254.2,20.5 256.2,14.7 260.3,10.3 C264.5,5.8 269.5,3.6 275.5,3.6 Z M275.5,7 C271.9,7 268.9,8.6 266.6,11.9 C264.3,15.2 263.1,20.3 263.1,27.4 C263.1,34.6 264.3,39.8 266.6,43.1 C268.9,46.4 271.9,48.1 275.5,48.1 C279.3,48.1 282.3,46.4 284.7,43.1 C287,39.8 288.2,34.4 288.2,26.8 C288.2,19.8 287,14.8 284.7,11.6 C282.4,8.6 279.3,7 275.5,7 L275.5,7 Z" id="Shape"></path>
                                                                                                                                                                                                                                                                                                                <path d="M295.3,4.9 L308.2,4.1 C308.9,7.5 309.4,10.7 309.6,13.7 C312.1,10.2 314.5,7.7 316.9,6.2 C319.4,4.8 322,4 325,4 C328.1,4 330.7,4.8 332.7,6.5 C334.7,8.1 336.3,10.8 337.4,14.5 C339.6,11 341.9,8.4 344.6,6.7 C347.2,5 350.1,4.1 353.2,4.1 C357.3,4.1 360.4,5.3 362.5,7.8 C365.1,11 366.5,15.2 366.5,20.3 L366.5,42.8 C366.5,44.2 366.8,45.1 367.5,45.6 C368.4,46.3 369.7,46.7 371.5,46.7 L373.8,46.7 L373.8,50.3 L351,50.3 L351,46.7 L353.3,46.7 C355.2,46.7 356.6,46.4 357.4,45.7 C358.2,45.1 358.6,44.1 358.6,42.8 L358.6,20.3 C358.6,17 357.8,14.4 356.1,12.5 C354.5,10.7 352.3,9.7 349.6,9.7 C347.6,9.7 345.7,10.2 344.1,11.3 C342.5,12.4 341.2,13.9 340.2,15.9 C338.8,18.8 338.1,21.2 338.1,23.2 L338.1,42.7 C338.1,44 338.5,45 339.2,45.6 C339.9,46.2 341,46.5 342.5,46.5 L345.6,46.5 L345.6,50.1 L322.5,50.1 L322.5,46.5 L325.1,46.5 C326.7,46.5 328,46.2 328.8,45.5 C329.6,44.9 330,44 330,43 L330,22.1 C330,17.7 329.2,14.5 327.7,12.5 C326.1,10.5 324,9.5 321.4,9.5 C318,9.5 315.4,10.7 313.5,13 C310.9,16.3 309.6,20.1 309.6,24.5 L309.6,42.6 C309.6,44 309.9,44.9 310.5,45.5 C311.4,46.2 312.7,46.5 314.6,46.5 L316.9,46.5 L316.9,50.1 L294.1,50.1 L294.1,46.5 L297.5,46.5 C298.8,46.5 299.8,46.2 300.5,45.5 C301.2,44.9 301.5,44 301.5,43 L301.5,13.4 C301.5,11.8 301.1,10.5 300.2,9.7 C299.4,8.9 297.7,8.4 295.2,8.2 L295.2,4.9 L295.3,4.9 Z" id="Shape"></path>
                                                                                                                                                                                                                                                                                                                                <path d="M381.7,39.7 C383.3,39.7 384.7,40.3 385.8,41.4 C386.9,42.6 387.5,43.9 387.5,45.6 C387.5,47.3 386.9,48.7 385.8,49.8 C384.7,51 383.3,51.5 381.6,51.5 C380,51.5 378.6,50.9 377.5,49.8 C376.4,48.6 375.8,47.2 375.8,45.6 C375.8,44 376.4,42.6 377.5,41.4 C378.6,40.2 380,39.7 381.7,39.7 Z" id="Shape"></path>
                                                                                                                                                                                                                                                                                                                                                <path d="M435.3,45.2 L437,47.9 C434.6,50.3 432,51.5 429.2,51.5 C427,51.5 425.2,50.9 423.7,49.7 C422.2,48.5 420.9,46.4 419.8,43.4 C416.7,46.6 414.1,48.8 411.7,49.9 C409.4,51 406.6,51.5 403.3,51.5 C398.7,51.5 395.1,50.5 392.7,48.5 C390.3,46.5 389.1,43.9 389.1,40.8 C389.1,36.1 391.9,32.2 397.4,29.1 C402.9,26 410.3,23.9 419.4,22.9 L419.4,16 C419.4,13.6 418.4,11.5 416.5,9.7 C414.5,8 412,7.1 409,7.1 C406.2,7.1 403.8,7.7 401.8,8.8 C400.3,9.7 399.6,10.5 399.6,11.4 C399.6,11.9 400,12.6 400.8,13.7 C401.7,15 402.2,16.1 402.2,17.1 C402.2,18.5 401.7,19.7 400.8,20.7 C399.9,21.6 398.6,22.1 397.1,22.1 C395.5,22.1 394.1,21.6 393.1,20.5 C392,19.4 391.5,18 391.5,16.3 C391.5,13.1 393.3,10.2 396.9,7.6 C400.5,5 405.2,3.6 411,3.6 C416.4,3.6 420.5,4.8 423.3,7.1 C426.1,9.5 427.5,12.3 427.5,15.6 L427.5,40.3 C427.5,42.5 427.9,44.1 428.6,45.1 C429.3,46.2 430.2,46.7 431.4,46.7 C432.6,46.8 433.9,46.2 435.3,45.2 L435.3,45.2 Z M419.5,26.1 C411.3,27.2 405.5,29.1 402.1,31.6 C399.6,33.5 398.3,36.3 398.3,39.8 C398.3,42.3 399,44.2 400.3,45.6 C401.6,47 403.3,47.7 405.5,47.7 C409.3,47.7 412.6,46.3 415.4,43.4 C418.2,40.5 419.6,36.9 419.6,32.6 L419.6,26.1 L419.5,26.1 Z" id="Shape"></path>
                                                                                                                                                                                                                                                                                                                                                                <path d="M446.9,4.1 L446.9,34.1 C446.9,37.8 447.8,40.6 449.7,42.6 C451.5,44.6 453.9,45.6 456.9,45.6 C460.5,45.6 463.6,44.1 466.1,41.2 C468.6,38.3 469.9,34.6 469.9,30.3 L469.9,13.4 C469.9,11.9 469.3,10.7 468.2,9.8 C467.1,8.9 465,8.5 461.8,8.4 L461.8,5 L477.7,4.2 L477.7,41.3 C477.7,43 478.2,44.3 479.2,45.2 C480.2,46.1 481.5,46.6 483.3,46.6 L486.1,46.6 L486.1,49.8 L470.9,50.1 L469.9,41.2 C467.2,44.4 464.5,46.8 461.8,48.4 C459.1,50 456.3,50.8 453.5,50.8 C449.4,50.8 446,49.4 443.2,46.7 C440.4,44 439,39.4 439,32.9 L439,13.2 C439,11.5 438.3,10.1 436.9,9.2 C435.9,8.6 434,8.2 431,8.1 L431,4.7 L446.9,4.1 Z" id="Shape"></path>
                                                                                                                                                                                                                                                                                                                                                                            </g>
                                                                                                                                                                                                                                                                                                                                                                                    </g>
                                                                                                                                                                                                                                                                                                                                                                                        </g>
                                                                                                                                                                                                                                                                                                                                                                                        </svg>
