<svg xmlns="http://www.w3.org/2000/svg" version="1.0" width="151" height="67" preserveAspectRatio="xMidYMid meet" style=""><rect id="backgroundrect" width="100%" height="100%" x="0" y="0" fill="none" stroke="none" class="" style=""/>
<metadata>
Created by potrace 1.13, written by Peter Selinger 2001-2015
</metadata>

<g class="currentLayer" style=""><title>Layer 1</title>










<g class="selected" stroke="#ffffff" stroke-opacity="1" fill="#ffffff" fill-opacity="1"><path d="M129.34128514108988,3.2877348027021327 c-6.702272558660164,6.8295308983815595 -10.498813027015132,11.68655753108149 -12.959140928295446,16.56479388706832 c-1.3362125670746534,2.651215410862407 -1.8028264793864366,4.750978016265433 -1.4846806300829478,6.6810628353732655 c0.3393555725903882,1.8664556492471345 1.0392764410580635,3.2238779396086867 2.2694403916982204,4.3692029971012465 c2.2058112218375223,2.0361334355423284 4.708558569691634,2.6087959642886087 11.156314448909008,2.523957071141011 l4.326783550527448,-0.06362916986069776 l0.06362916986069776,-4.729768292978534 l0.04241944657379852,-4.708558569691634 l-4.432832166961944,0 c-2.8845223670182984,0 -4.496461336822642,-0.08483889314759699 -4.581300229970239,-0.23330695615589186 c-0.3393555725903882,-0.5302430821724816 2.9693612601658956,-4.857026632699929 7.232515640832645,-9.438326862670168 l1.9725042656816303,-2.163391775263724 l0.021209723286899258,-6.00235169019249 c0.021209723286899258,-3.308716832756284 -0.06362916986069776,-6.044771136766287 -0.16967778629519406,-6.087190583340086 c-0.08483889314759699,-0.021209723286899258 -1.6543584163781428,1.4634709067960485 -3.4571848957645788,3.2875071094693844 z" id="svg_2" fill="#ffffff" class="" fill-opacity="1" stroke="#ffffff" stroke-opacity="1"/><path d="M133.49839090532214,14.210742295455248 c-0.06362916986069776,0.1484680630082949 -0.08483889314759699,2.2906501149851195 -0.06362916986069776,4.729768292978534 l0.06362916986069776,4.454041890248844 l4.454041890248844,0.04241944657379852 c3.8601696382156643,0.021209723286899258 4.454041890248844,0.08483889314759699 4.5176710601095404,0.3817750191641867 c0.1484680630082949,0.6575014218938772 -3.5632335121990746,5.344850268298612 -7.190096194258848,9.12018101336668 l-2.0361334355423284,2.1209723286899256 l-0.16967778629519406,6.193239199774582 c-0.12725833972139564,5.366059991585511 -0.10604861643449631,6.2144489230614814 0.16967778629519406,6.2144489230614814 c0.3817750191641867,0 5.917512797044893,-5.662996117602101 8.5263087613335,-8.695986547628694 c4.857026632699929,-5.662996117602101 7.996065679161019,-10.583651920162728 8.950503227071486,-14.019627092640407 c0.1908875095820934,-0.7423403150414741 0.4454041890248846,-1.3998417369353509 0.5302430821724816,-1.4210514602222504 c0.2969361260165896,-0.12725833972139564 0.1908875095820934,-2.3118598382720186 -0.1484680630082949,-2.926941813592097 c-0.16967778629519406,-0.3393555725903882 -0.3181458493034888,-0.7635500383283736 -0.3181458493034888,-0.9332278246235675 c0,-0.5514528054593806 -1.2089542273532574,-2.4391181779934143 -1.9937139889685298,-3.1390390464610896 c-0.8908083780497686,-0.7635500383283736 -2.078552882116127,-1.4210514602222504 -3.4996043423383765,-1.887665372534034 c-1.3998417369353509,-0.4666139123117836 -11.622928361220792,-0.6787111451807764 -11.792606147515986,-0.23330695615589186 z" id="svg_3" fill="#ffffff" class="" fill-opacity="1" stroke="#ffffff" stroke-opacity="1"/><path d="M6.4521484167955805,45.685971653213734 c-2.0149237122554293,0.27572640272969046 -3.351136279330082,0.8695986547628696 -4.475251613535743,1.9725042656816303 c-1.4422611835091492,1.3998417369353509 -1.8452459259602352,2.481537624567213 -1.9512945423947317,5.344850268298612 c-0.06362916986069776,1.9088750958209326 -0.021209723286899258,2.736054304010004 0.27572640272969046,3.6904918519204712 c0.6575014218938772,2.333069561558918 2.1846014985506232,3.9450085313632615 4.411622443675045,4.687348846404735 c1.3574222903615523,0.4666139123117836 6.320497539495978,0.48782363559868297 7.6779198298575295,0.04241944657379852 l0.8483889314759704,-0.27572640272969046 l0,-1.2725833972139553 c0,-1.2301639506401567 -0.021209723286899258,-1.2725833972139553 -0.5302430821724816,-1.2089542273532574 c-0.2969361260165896,0.04241944657379852 -1.8240362026733359,0.10604861643449631 -3.3935557259038807,0.1908875095820934 c-2.6724251341493064,0.10604861643449631 -2.9481515368789966,0.08483889314759699 -3.902589084789463,-0.3605652958772875 c-1.1453250574925598,-0.5514528054593806 -1.8240362026733359,-1.4846806300829478 -2.2058112218375223,-3.0117807067396942 c-0.8059694849021717,-3.2450876628955863 0.3393555725903882,-6.044771136766287 2.778473750583802,-6.723482281947064 c0.9756472711973655,-0.27572640272969046 4.6025099532571385,-0.21209723286899268 6.575014218938769,0.10604861643449631 l0.8059694849021717,0.12725833972139564 l-0.06362916986069776,-1.3362125670746534 c-0.06362916986069776,-1.3362125670746534 -0.06362916986069776,-1.3574222903615523 -0.8059694849021717,-1.5907292465174445 c-0.7847597616152726,-0.25451667944279116 -4.9842849724213245,-0.5302430821724816 -6.044771136766287,-0.3817750191641867 z" id="svg_4" fill="#ffffff" class="" stroke="#ffffff" stroke-opacity="1" fill-opacity="1"/><path d="M21.086857484756024,46.025327225804126 c-0.9332278246235675,0.08483889314759699 -1.9088750958209326,0.27572640272969046 -2.1846014985506232,0.3817750191641867 c-0.27572640272969046,0.12725833972139564 -0.6575014218938772,0.21209723286899268 -0.8695986547628696,0.21209723286899268 c-0.5090333588855821,0 -0.6575014218938772,0.40298474245108584 -0.6575014218938772,1.8240362026733359 c0,1.3150028437877541 0.021209723286899258,1.3150028437877541 1.7179875862388396,0.7847597616152726 c1.4846806300829478,-0.4454041890248846 5.387269714872411,-0.5090333588855821 6.193239199774582,-0.08483889314759699 c0.6999208684676758,0.3605652958772875 1.251373673927056,1.5271000766567466 1.166534780779459,2.3966987314196158 l-0.06362916986069776,0.6787111451807764 l-2.5663765177148097,-0.06362916986069776 c-3.5208140656252764,-0.06362916986069776 -5.196382205290317,0.3817750191641867 -6.405336432643574,1.7604070328126382 c-0.8695986547628696,0.9968569944842648 -1.166534780779459,2.0149237122554293 -1.0604861643449628,3.732911298494269 c0.10604861643449631,1.8240362026733359 0.8271792081890714,2.9693612601658956 2.3966987314196158,3.796540468354967 c1.7179875862388396,0.8908083780497686 5.917512797044893,0.8908083780497686 8.483889314759702,-0.021209723286899258 c1.5058903533698471,-0.5302430821724816 2.0149237122554293,-0.8483889314759704 2.1421820519768247,-1.3150028437877541 c0.06362916986069776,-0.27572640272969046 0.08483889314759699,-2.736054304010004 0.04241944657379852,-5.450898884733108 c-0.06362916986069776,-4.072266871084657 -0.12725833972139564,-5.11154331214272 -0.42419446573798536,-5.769044734036597 c-0.6787111451807764,-1.5058903533698471 -2.2906501149851195,-2.5875862410017088 -4.220734934092952,-2.7996834738707017 c-0.6362916986069781,-0.06362916986069776 -1.3362125670746534,-0.1484680630082949 -1.5695195232305448,-0.1908875095820934 c-0.23330695615589186,-0.04241944657379852 -1.1877445040663583,0.021209723286899258 -2.1209723286899256,0.12725833972139564 zm5.069123865568923,8.992922673645284 c0.27572640272969046,0.10604861643449631 0.3393555725903882,0.48782363559868297 0.3393555725903882,1.9088750958209326 c0,1.5907292465174445 -0.04241944657379852,1.7816167560995373 -0.4666139123117836,2.0149237122554293 c-0.5726625287462797,0.2969361260165896 -3.8601696382156643,0.5090333588855821 -4.9418655258475255,0.3181458493034888 c-1.4634709067960485,-0.27572640272969046 -2.099762605403026,-1.4210514602222504 -1.675568139665041,-3.0329904300265933 c0.23330695615589186,-0.8908083780497686 1.6331486930912429,-1.3362125670746534 4.157105764232254,-1.3362125670746534 c1.2301639506401567,0 2.3966987314196158,0.06362916986069776 2.5875862410017088,0.12725833972139564 z" id="svg_5" fill="#ffffff" class="" stroke="#ffffff" stroke-opacity="1" fill-opacity="1"/><path d="M36.99414994993049,46.00411750251723 c-1.4846806300829478,0.27572640272969046 -2.2694403916982204,0.6999208684676758 -3.1178293231741905,1.6543584163781428 c-1.2725833972139553,1.3786320136484518 -1.3362125670746534,1.8028264793864366 -1.3362125670746534,8.399050421612104 l0,5.938722520331791 l1.4846806300829478,0 l1.4846806300829478,0 l0.10604861643449631,-6.00235169019249 l0.10604861643449631,-6.0235614134793884 l0.5726625287462797,-0.48782363559868297 c0.6787111451807764,-0.5938722520331798 2.3966987314196158,-0.8695986547628696 4.220734934092952,-0.6575014218938772 c1.3574222903615523,0.12725833972139564 1.8664556492471345,0.3817750191641867 2.333069561558918,1.0604861643449628 c0.25451667944279116,0.3817750191641867 0.40298474245108584,4.772187739552332 0.40298474245108584,11.962283933811179 c0,0.21209723286899268 0.3605652958772875,0.25451667944279116 1.4422611835091492,0.21209723286899268 l1.4210514602222504,-0.06362916986069776 l0.06362916986069776,-5.8750933504710945 c0.04241944657379852,-5.450898884733108 0.021209723286899258,-5.938722520331791 -0.3817750191641867,-7.020418407963653 c-0.4666139123117836,-1.2301639506401567 -0.9332278246235675,-1.7816167560995373 -2.1421820519768247,-2.4391181779934143 c-1.5058903533698471,-0.8271792081890714 -4.220734934092952,-1.1029056109187612 -6.659853112086366,-0.6575014218938772 z" id="svg_6" fill="#ffffff" class="" stroke="#ffffff" stroke-opacity="1" fill-opacity="1"/><path d="M53.74983134658089,46.17379528881242 c-1.8240362026733359,0.5090333588855821 -3.5632335121990746,1.9300848191078321 -4.305573827240549,3.4996043423383765 c-0.7211305917545746,1.5058903533698471 -1.0180667177711642,4.114686317658455 -0.6999208684676758,6.2144489230614814 c0.3181458493034888,2.248230668411321 0.9544375479104662,3.5208140656252764 2.333069561558918,4.772187739552332 c1.4846806300829478,1.3362125670746534 2.8208931971576012,1.7179875862388396 5.5993669477414025,1.6119389698043434 c2.4603279012803134,-0.10604861643449631 3.7117015752073703,-0.5726625287462797 4.9842849724213245,-1.8240362026733359 c2.8208931971576012,-2.8421029204445003 2.8208931971576012,-9.756472711973657 -0.021209723286899258,-12.577365909131258 c-1.3150028437877541,-1.3150028437877541 -2.481537624567213,-1.7391973095257391 -5.026704418995123,-1.8028264793864366 c-1.2301639506401567,-0.04241944657379852 -2.502747347854112,0.021209723286899258 -2.8633126437313994,0.10604861643449631 zm5.026704418995123,3.1390390464610896 c1.4634709067960485,0.8483889314759704 2.227020945124422,2.926941813592097 2.0361334355423284,5.578157224454504 c-0.12725833972139564,1.7604070328126382 -0.7635500383283736,3.181458493034888 -1.7391973095257391,3.9237988080763615 c-1.0392764410580635,0.7847597616152726 -3.4359751724776793,0.9968569944842648 -4.899446079273728,0.42419446573798536 c-1.9512945423947317,-0.7423403150414741 -2.9481515368789966,-3.3723460026169816 -2.4603279012803134,-6.468965602504272 c0.3605652958772875,-2.248230668411321 1.2301639506401567,-3.4359751724776793 2.7996834738707017,-3.8389599149287648 c1.166534780779459,-0.2969361260165896 3.4571848957645788,-0.08483889314759699 4.26315438066675,0.3817750191641867 z" id="svg_7" fill="#ffffff" class="" stroke="#ffffff" stroke-opacity="1" fill-opacity="1"/><path d="M70.29341551036237,46.216214735386224 c-1.166534780779459,0.10604861643449631 -2.502747347854112,0.25451667944279116 -2.9693612601658956,0.3393555725903882 l-0.8483889314759704,0.16967778629519406 l-0.06362916986069776,10.350344964006837 l-0.04241944657379852,10.329135240719937 l1.4846806300829478,0 l1.4846806300829478,0 l0,-2.7148445807231045 c0,-1.5058903533698471 0.06362916986069776,-2.7996834738707017 0.12725833972139564,-2.8633126437313994 c0.08483889314759699,-0.06362916986069776 0.3393555725903882,-0.021209723286899258 0.5726625287462797,0.10604861643449631 c0.6575014218938772,0.3393555725903882 4.326783550527448,0.3393555725903882 5.450898884733108,-0.021209723286899258 c1.9512945423947317,-0.6362916986069781 3.4996043423383765,-1.9937139889685298 4.241944657379851,-3.7541210217811676 c0.6999208684676758,-1.5907292465174445 0.9756472711973655,-4.114686317658455 0.6575014218938772,-5.981141966905589 c-0.8059694849021717,-4.772187739552332 -3.6692821286335713,-6.468965602504272 -10.095828284564044,-5.95993224361869 zm4.623719676544037,3.075409876600392 c1.3362125670746534,0.4454041890248846 2.163391775263724,1.4422611835091492 2.481537624567213,2.9905709834527947 c0.2969361260165896,1.3786320136484518 0.1484680630082949,3.4783946190514783 -0.3181458493034888,4.581300229970239 c-0.40298474245108584,0.9968569944842648 -1.5271000766567466,1.9300848191078321 -2.7148445807231045,2.2694403916982204 c-1.1029056109187612,0.2969361260165896 -3.4783946190514783,0.21209723286899268 -4.432832166961944,-0.1908875095820934 l-0.5938722520331798,-0.23330695615589186 l0,-4.666139123117836 c0,-4.6449293998309376 0,-4.687348846404735 0.48782363559868297,-4.878236355986829 c0.8059694849021717,-0.3181458493034888 4.008637701223959,-0.25451667944279116 5.090333588855821,0.12725833972139564 z" id="svg_8" fill="#ffffff" class="" stroke="#ffffff" stroke-opacity="1" fill-opacity="1"/><path d="M83.61312173453507,46.237424458673125 c-0.16967778629519406,0.1908875095820934 -0.1908875095820934,2.757264027296903 -0.08483889314759699,8.123324018882414 l0.12725833972139564,7.847597616152723 l1.3786320136484518,0 l1.3786320136484518,0 l0,-8.059694849021717 l0,-8.059694849021717 l-1.2937931205008546,-0.06362916986069776 c-0.8695986547628696,-0.04241944657379852 -1.3574222903615523,0.021209723286899258 -1.5058903533698471,0.21209723286899268 z" id="svg_9" fill="#ffffff" class="" stroke="#ffffff" stroke-opacity="1" fill-opacity="1"/><path d="M112.18261900198831,46.19500501209932 c-3.2238779396086867,0.3393555725903882 -5.090333588855821,2.1421820519768247 -5.090333588855821,4.920655802560627 c0.021209723286899258,2.099762605403026 1.2301639506401567,3.7541210217811676 3.2238779396086867,4.347993273814347 c0.5090333588855821,0.1484680630082949 1.887665372534034,0.27572640272969046 3.075409876600392,0.27572640272969046 c2.417908454706515,0 3.1390390464610896,0.21209723286899268 3.4147654491907797,1.0392764410580635 c0.25451667944279116,0.7847597616152726 0.021209723286899258,1.5058903533698471 -0.6575014218938772,2.0149237122554293 c-0.8271792081890714,0.6150819753200787 -4.3692029971012465,0.7423403150414741 -6.193239199774582,0.23330695615589186 c-0.6999208684676758,-0.1908875095820934 -1.5271000766567466,-0.40298474245108584 -1.8452459259602352,-0.4666139123117836 l-0.5938722520331798,-0.10604861643449631 l0,1.3998417369353509 c0,1.2725833972139553 0.04241944657379852,1.4210514602222504 0.48782363559868297,1.5907292465174445 c1.5695195232305448,0.6150819753200787 2.5663765177148097,0.7635500383283736 5.132753035429619,0.7635500383283736 c2.502747347854112,-0.021209723286899258 2.8633126437313994,-0.06362916986069776 3.9237988080763615,-0.5726625287462797 c0.6362916986069781,-0.2969361260165896 1.4210514602222504,-0.8059694849021717 1.7391973095257391,-1.1453250574925598 c1.6119389698043434,-1.7179875862388396 1.6543584163781428,-4.5176710601095404 0.08483889314759699,-6.193239199774582 c-1.0180667177711642,-1.081695887631862 -1.8240362026733359,-1.3362125670746534 -5.047914142282022,-1.5058903533698471 c-1.7604070328126382,-0.10604861643449631 -3.0329904300265933,-0.27572640272969046 -3.2238779396086867,-0.42419446573798536 c-0.4666139123117836,-0.40298474245108584 -0.6150819753200787,-1.3998417369353509 -0.2969361260165896,-2.078552882116127 c0.4454041890248846,-0.9332278246235675 1.4846806300829478,-1.3150028437877541 3.605652958772873,-1.3362125670746534 c1.6543584163781428,0 2.651215410862407,0.16967778629519406 4.772187739552332,0.8059694849021717 c0.3605652958772875,0.12725833972139564 0.7211305917545746,0.16967778629519406 0.7847597616152726,0.08483889314759699 c0.06362916986069776,-0.06362916986069776 0.12725833972139564,-0.6575014218938772 0.12725833972139564,-1.3150028437877541 c0,-1.2937931205008546 -0.3817750191641867,-1.9088750958209326 -1.2089542273532574,-1.9088750958209326 c-0.23330695615589186,0 -0.6999208684676758,-0.08483889314759699 -1.0392764410580635,-0.1908875095820934 c-0.8908083780497686,-0.27572640272969046 -3.5632335121990746,-0.40298474245108584 -5.175172482003418,-0.23330695615589186 z" id="svg_10" fill="#ffffff" class="" stroke="#ffffff" stroke-opacity="1" fill-opacity="1"/><path d="M90.29418456990834,46.407102244968314 c-0.021209723286899258,0.10604861643449631 -0.021209723286899258,2.9481515368789966 0.04241944657379852,6.299287816209079 l0.10604861643449631,6.108400306626986 l0.5938722520331798,1.0180667177711642 c0.7211305917545746,1.2089542273532574 1.887665372534034,2.0361334355423284 3.3723460026169816,2.354279284845817 c1.3998417369353509,0.2969361260165896 4.6449293998309376,0.27572640272969046 5.8326739038972955,-0.06362916986069776 c1.251373673927056,-0.3393555725903882 2.5875862410017088,-1.4422611835091492 3.160248769747989,-2.5663765177148097 c0.48782363559868297,-0.9332278246235675 0.48782363559868297,-1.1029056109187612 0.5090333588855821,-7.168886470971947 l0,-6.2144489230614814 l-1.4210514602222504,0.06362916986069776 l-1.4422611835091492,0.06362916986069776 l-0.10604861643449631,6.00235169019249 l-0.10604861643449631,6.0235614134793884 l-0.6150819753200787,0.48782363559868297 c-1.081695887631862,0.8483889314759704 -4.772187739552332,0.9544375479104662 -5.981141966905589,0.1908875095820934 c-0.8695986547628696,-0.5726625287462797 -0.9332278246235675,-1.1241153342056605 -0.9332278246235675,-7.084047577824352 l0,-5.726625287462799 l-1.4634709067960485,0 c-0.8059694849021717,0 -1.5058903533698471,0.08483889314759699 -1.5483097999436455,0.21209723286899268 z" id="svg_11" fill="#ffffff" class="" stroke="#ffffff" stroke-opacity="1" fill-opacity="1"/></g></g></svg>