<svg width="142" height="54" viewBox="0 0 142 54" fill="none" xmlns="http://www.w3.org/2000/svg">
<path d="M28.4018 42.335V27.56H28.3898C28.3689 19.705 22.0228 13.343 14.1959 13.343C11.8319 13.343 9.60336 13.927 7.64265 14.955V0H0V42.444H7.64265V27.599C7.71335 24.068 10.5464 21.223 14.0635 21.152C17.6822 21.08 20.6725 23.966 20.7462 27.599H20.7562L20.7462 42.335H28.4018Z" fill="#02DE82"/>
<path d="M33.2254 4.941C33.2473 2.30134 35.3944 0.179753 38.0221 0.198944L38.0201 0.199H38.029L38.0221 0.198944C38.0563 0.198 38.0904 0.198019 38.1236 0.199C40.7685 0.235 42.8835 2.418 42.8477 5.075C42.8467 7.741 40.6938 9.902 38.039 9.904C35.3822 9.905 33.2274 7.743 33.2264 5.075L33.2263 5.07353C33.2254 5.02923 33.2244 4.98533 33.2254 4.941Z" fill="#02DE82"/>
<path d="M41.8459 42.394H34.3028V14.272H41.8459V42.394Z" fill="#02DE82"/>
<path fill-rule="evenodd" clip-rule="evenodd" d="M112.521 28.32C112.523 36.495 119.123 43.121 127.262 43.12C135.4 43.118 141.997 36.495 142 28.323V28.315C141.999 20.139 135.398 13.513 127.258 13.515C119.118 13.516 112.52 20.145 112.521 28.32ZM127.261 20.864C131.363 20.864 134.688 24.203 134.688 28.323V28.325C134.688 32.443 131.363 35.782 127.261 35.782C123.158 35.782 119.834 32.442 119.834 28.323C119.834 24.203 123.158 20.864 127.261 20.864Z" fill="#02DE82"/>
<path fill-rule="evenodd" clip-rule="evenodd" d="M87.5186 17.377C89.3419 15.101 92.0305 13.518 95.8732 13.518C103.613 13.518 109.453 19.876 109.453 28.32C109.453 36.763 103.613 43.12 95.9051 43.12C92.145 43.12 89.4863 41.639 87.666 39.462V54H80.1617V14.272H87.5186V17.377ZM87.2896 28.32C87.2896 32.755 90.2092 36.067 94.4831 36.067C98.9343 36.067 101.709 32.616 101.709 28.32C101.709 24.024 98.9343 20.571 94.4831 20.571C90.2092 20.571 87.2896 23.884 87.2896 28.32Z" fill="#02DE82"/>
<path fill-rule="evenodd" clip-rule="evenodd" d="M62.7713 13.518C58.9266 13.518 56.239 15.101 54.4187 17.377V14.272H47.0608V54H54.573V39.462C56.3943 41.639 59.0531 43.12 62.8132 43.12C70.5215 43.12 76.3618 36.763 76.3618 28.32C76.3618 19.876 70.5215 13.518 62.7823 13.518H62.7713ZM61.3812 36.067C57.1063 36.067 54.1877 32.755 54.1877 28.32C54.1877 23.884 57.1063 20.571 61.3812 20.571C65.8314 20.571 68.6066 24.024 68.6066 28.32C68.6066 32.616 65.8314 36.067 61.3812 36.067Z" fill="#02DE82"/>
</svg>
